<?xml version="1.0" encoding="utf-8"?>
<!-- Generator: Adobe Illustrator 24.1.1, SVG Export Plug-In . SVG Version: 6.00 Build 0)  -->
<svg version="1.1" id="Layer_1" xmlns="http://www.w3.org/2000/svg" xmlns:xlink="http://www.w3.org/1999/xlink" x="0px" y="0px"
	 viewBox="0 0 80 80" style="enable-background:new 0 0 80 80;" xml:space="preserve">
<style type="text/css">
	.st0{fill:#222222;}
</style>
<path class="st0" d="M73.8,5.9H6.3C2.8,5.9,0,8.7,0,12.2v40c0,3.4,2.8,6.3,6.3,6.3H38v-2.5H6.3c-2.1,0-3.8-1.7-3.8-3.8v-40
	c0-2.1,1.7-3.8,3.8-3.8h67.5c2.1,0,3.8,1.7,3.8,3.8v25.4c0.4,0,2.1-0.1,2.5,0V12.2C80,8.7,77.2,5.9,73.8,5.9z"/>
<g>
	<rect x="8.8" y="20" class="st0" width="6.3" height="3.4"/>
	<path class="st0" d="M8.8,25.6v1.1c0,1.4,1.1,2.5,2.5,2.5h6v-3.6H8.8z"/>
	<path class="st0" d="M28.8,17.8v-1.1c0-1.4-1.1-2.5-2.5-2.5h-6v3.6C20.3,17.8,28.8,17.8,28.8,17.8z"/>
	<path class="st0" d="M17.2,14.2h-6c-1.4,0-2.5,1.1-2.5,2.5v1.1h8.5L17.2,14.2C17.2,14.2,17.2,14.2,17.2,14.2z"/>
	<rect x="22.5" y="20" class="st0" width="6.3" height="3.4"/>
	<path class="st0" d="M20.3,29.2h6c1.4,0,2.5-1.1,2.5-2.5v-1.1h-8.5L20.3,29.2L20.3,29.2z"/>
</g>
<path class="st0" d="M36.3,48.4H10.1c-0.7,0-1.3-0.6-1.3-1.3c0-0.7,0.6-1.2,1.3-1.2h26.1c0.7,0,1.2,0.6,1.2,1.2
	C37.5,47.9,36.9,48.4,36.3,48.4z"/>
<g>
	<path class="st0" d="M42.5,36.3H30c-0.7,0-1.3,0.6-1.3,1.3c0,0.7,0.6,1.2,1.3,1.2h12.5c0.7,0,1.3-0.6,1.3-1.2
		C43.8,36.9,43.2,36.3,42.5,36.3z"/>
	<path class="st0" d="M23,36.3H10.3c-0.7,0-1.3,0.6-1.3,1.3c0,0.7,0.6,1.2,1.3,1.2H23c0.7,0,1.3-0.6,1.3-1.2
		C24.2,36.9,23.7,36.3,23,36.3z"/>
</g>
<path class="st0" d="M78.8,41.7h-4.5v-7.1c0-7.4-6-13.4-13.4-13.4c-7.4,0-13.4,6-13.4,13.4v7.1H43c-0.7,0-1.2,0.5-1.2,1.2v30.7
	c0,3.5,2.8,6.4,6.4,6.4h25.6c3.5,0,6.4-2.9,6.4-6.4V42.9C80,42.3,79.4,41.7,78.8,41.7z M50,34.6c0-6,4.9-10.9,10.9-10.9
	c6,0,10.9,4.9,10.9,10.9v7.1H50V34.6z M77.5,73.6c0,2.1-1.7,3.9-3.9,3.9H48.1c-2.1,0-3.9-1.7-3.9-3.9V44.2h33.3V73.6z"/>
<path class="st0" d="M60.9,51.1c-3.5,0-6.4,2.9-6.4,6.4c0,1.8,0.8,3.5,2.1,4.7v4.2c0,2.3,1.9,4.2,4.2,4.2c2.3,0,4.2-1.9,4.2-4.2
	v-4.2c1.3-1.2,2.1-2.9,2.1-4.7C67.2,53.9,64.4,51.1,60.9,51.1z M63.1,60.6l-0.5,0.4v5.5c0,0.9-0.8,1.7-1.7,1.7c-1,0-1.7-0.8-1.7-1.7
	v-5.5l-0.5-0.4c-1-0.7-1.6-1.9-1.6-3.1c0-2.1,1.7-3.9,3.9-3.9c2.1,0,3.9,1.7,3.9,3.9C64.7,58.7,64.1,59.8,63.1,60.6z"/>
</svg>
