<?xml version="1.0" encoding="utf-8"?>
<!-- Generator: Adobe Illustrator 24.1.1, SVG Export Plug-In . SVG Version: 6.00 Build 0)  -->
<svg version="1.1" id="Layer_1" xmlns="http://www.w3.org/2000/svg" xmlns:xlink="http://www.w3.org/1999/xlink" x="0px" y="0px"
	 viewBox="0 0 80 80" style="enable-background:new 0 0 80 80;" xml:space="preserve">
<style type="text/css">
	.st0{fill:#222222;}
</style>
<path class="st0" d="M20,55.5c-4.8,0-8.8,3.9-8.8,8.7c0,4.8,3.9,8.8,8.8,8.8s8.8-3.9,8.8-8.8C28.8,59.4,24.8,55.5,20,55.5z M20,70.5
	c-3.4,0-6.2-2.8-6.2-6.3c0-3.4,2.8-6.2,6.2-6.2c3.4,0,6.3,2.8,6.3,6.2C26.3,67.7,23.4,70.5,20,70.5z"/>
<path class="st0" d="M59.9,55.5c-4.8,0-8.8,3.9-8.8,8.7c0,4.8,3.9,8.8,8.8,8.8c4.8,0,8.7-3.9,8.7-8.8C68.6,59.4,64.7,55.5,59.9,55.5
	z M59.9,70.5c-3.5,0-6.3-2.8-6.3-6.3c0-3.4,2.8-6.2,6.3-6.2c3.4,0,6.2,2.8,6.2,6.2C66.1,67.7,63.3,70.5,59.9,70.5z"/>
<path class="st0" d="M69.7,26c-5.5-6.9-12-14.2-20-14.2l-43.4,0c0,0-0.2,0-0.6,0C3,11.7,0,13.4,0,18v13.3h32.6v-7
	c0.1,0,0.3,0,0.4,0.2l11.1,11.1c0.1,0.1,0.2,0.2,0.2,0.4c0,0.1-0.1,0.3-0.2,0.4L33,47.4c-0.1,0.1-0.3,0.2-0.4,0.2v-6.9H0V58
	c0,5.9,4.1,7.5,6.3,7.5H10v-1.3c0-5.5,4.5-10,10-10c5.5,0,10,4.5,10,10v1.3h19.9v-1.3c0-5.5,4.5-10,10-10c5.5,0,10,4.5,10,10v1.3
	h3.9c3.4,0,6.3-2.8,6.3-6.2V48C80,40.5,72.6,29.5,69.7,26z M77.5,59.3c0,2.1-1.7,3.8-3.8,3.8h-1.4c-0.6-6.3-6-11.3-12.4-11.3
	S48.1,56.7,47.4,63h-15c-0.6-6.3-6-11.3-12.4-11.3S8.2,56.7,7.6,63H6.3c-0.1,0-3.8-0.1-3.8-5V43.1h27.6v5.7l0.4,0.4
	c1.1,1.1,3.2,1.1,4.3,0l11.1-11.1c0.6-0.6,0.9-1.3,0.9-2.2c0-0.8-0.3-1.6-0.9-2.2L34.8,22.7c-1.2-1.1-3.2-1.1-4.3,0L30.1,23v5.7H2.5
	V18c0-3.1,1.8-3.8,3.3-3.8c0.2,0,0.3,0,0.4,0h43.5c2.9,0,5.7,1.3,8.3,3.2L58.1,31c0,0.1-0.2,2.9,1.5,4.7c1,1.1,2.4,1.6,4.1,1.6H70
	c0.7,0,1.3-0.6,1.3-1.2c0-0.7-0.6-1.3-1.3-1.3h-6.2c-1,0-1.8-0.3-2.3-0.8c-1-1.1-0.9-2.8-0.9-2.9l0-11.6c2.6,2.4,5,5.2,7.2,8
	c4,5.1,9.7,14.7,9.7,20.5V59.3z"/>
</svg>
