<?xml version="1.0" encoding="utf-8"?>
<!-- Generator: Adobe Illustrator 24.1.1, SVG Export Plug-In . SVG Version: 6.00 Build 0)  -->
<svg version="1.1" id="Layer_1" xmlns="http://www.w3.org/2000/svg" xmlns:xlink="http://www.w3.org/1999/xlink" x="0px" y="0px"
	 viewBox="0 0 80 80" style="enable-background:new 0 0 80 80;" xml:space="preserve">
<style type="text/css">
	.st0{display:none;}
	.st1{display:inline;fill:#78CFCF;}
	.st2{fill:#222222;}
</style>
<g id="location_2_" class="st0">
	<path class="st1" d="M40,57.5c-0.4,0-0.8-0.2-1-0.6L21.9,31.6c-4.8-8.3-3.4-18.7,3.3-25.4c4-4,9.2-6.1,14.8-6.1
		c5.6,0,10.9,2.2,14.9,6.1c6.7,6.7,8.1,17.1,3.3,25.3L41,57C40.8,57.3,40.4,57.5,40,57.5z M40,2.5c-4.9,0-9.6,1.9-13.1,5.4
		C21,13.8,19.8,23,24,30.2L40,54l16-23.8c4.1-7.2,2.9-16.3-3-22.3C49.6,4.4,44.9,2.5,40,2.5z"/>
	<path class="st1" d="M40,32.4c-3,0-5.9-1.2-8-3.3c-2.1-2.1-3.3-5-3.3-8c0-3,1.2-5.9,3.3-8.1c2.2-2.1,5-3.3,8-3.3s5.9,1.2,8.1,3.3
		c2.1,2.1,3.3,5,3.3,8c0,3-1.2,5.9-3.3,8C45.9,31.2,43.1,32.4,40,32.4z M40,12.1c-2.4,0-4.6,0.9-6.3,2.6c-1.7,1.7-2.6,3.9-2.6,6.3
		c0,2.4,0.9,4.6,2.6,6.3c3.4,3.4,9.2,3.4,12.6,0c1.7-1.7,2.6-3.9,2.6-6.3c0-2.4-0.9-4.6-2.6-6.3C44.6,13,42.4,12.1,40,12.1z"/>
	<path class="st1" d="M79,72.1c0,0-5.4-16.1-8.5-25.6c-1.1-3.3-3.7-4.9-8-6.8L58.6,38l-1.4,2.1l4.3,2c4.3,1.8,5.9,3.1,6.6,5.3
		c3.2,9.5,8.5,25.7,8.6,25.7c1.2,3.5,0.7,4.3,0.7,4.3c-0.1,0.2-1.1,0.3-3.9-1l-17-8.3c-0.4-0.2-0.8-0.2-1.1,0L40,76l-16.2-8
		c-0.3-0.2-0.8-0.2-1.1,0L6.5,76.3c-2.9,1.4-3.9,1.2-3.9,1.2c0,0-0.5-0.7,0.7-4.5c0,0,5.4-16.1,8.5-25.7c0.7-2.1,2.1-3.2,6.7-5.3
		l4.3-1.9L21.4,38l-3.9,1.8c-4.7,2.2-7,3.6-8,6.8C6.4,56,1,72.1,1,72.1c-1.1,3.5-1.3,5.6-0.4,6.8C0.9,79.4,1.6,80,2.9,80
		c1.1,0,2.6-0.5,4.7-1.5l15.6-8l16.2,8c0.4,0.2,0.8,0.2,1.1,0l15.4-8l16.5,8c1.9,0.9,3.4,1.3,4.5,1.3c1.4,0,2.1-0.6,2.4-1.1
		C80.3,77.5,80.2,75.5,79,72.1z"/>
</g>
<g>
	<path class="st2" d="M78.1,80H1.9c-0.7,0-1.3-0.6-1.3-1.2c0-0.7,0.6-1.3,1.3-1.3h76.3c0.7,0,1.3,0.6,1.3,1.3
		C79.4,79.4,78.8,80,78.1,80z"/>
</g>
<g>
	<path class="st2" d="M23.7,61.8c-1,0-1.9-0.8-1.9-1.9v-9.6c0-1,0.8-1.9,1.9-1.9c1,0,1.9,0.8,1.9,1.9v9.6
		C25.6,61,24.8,61.8,23.7,61.8z"/>
</g>
<g>
	<path class="st2" d="M52.5,72.7c-0.3,0-0.6-0.1-0.9-0.4c-0.5-0.5-0.5-1.3,0-1.8l12.5-12.4c0.5-0.5,1.3-0.5,1.8,0
		c0.5,0.5,0.5,1.3,0,1.8L53.4,72.3C53.1,72.5,52.8,72.7,52.5,72.7z"/>
	<path class="st2" d="M58.8,72.7c-0.3,0-0.6-0.1-0.9-0.4c-0.5-0.5-0.5-1.3,0-1.8l6.2-6.2c0.5-0.5,1.3-0.5,1.8,0
		c0.5,0.5,0.5,1.3,0,1.8l-6.2,6.2C59.4,72.5,59.1,72.7,58.8,72.7z"/>
</g>
<g>
	<path class="st2" d="M6.3,78.2c0,0.7,0.6,1.2,1.2,1.2c0.7,0,1.2-0.6,1.2-1.2V45.6c-0.9-0.1-1.7-0.3-2.5-0.6V78.2z"/>
	<path class="st2" d="M28.9,45.6v32.6c0,0.7,0.6,1.2,1.2,1.2c0.7,0,1.2-0.6,1.2-1.2V45.6c-0.4,0-0.8,0.1-1.2,0.1
		C29.8,45.7,29.4,45.6,28.9,45.6z"/>
	<path class="st2" d="M71.2,78.2c0,0.7,0.6,1.2,1.3,1.2s1.2-0.6,1.2-1.2V45c-0.8,0.3-1.6,0.4-2.5,0.6V78.2z"/>
</g>
<path class="st2" d="M73.5,0h-67L0,29v2.3C0,37.2,4.8,42,10.7,42c4.4,0,8.1-2.6,9.8-6.3c1.7,3.7,5.4,6.3,9.8,6.3
	c4.3,0,8.1-2.6,9.8-6.3c1.7,3.7,5.4,6.3,9.8,6.3c4.4,0,8.1-2.6,9.8-6.3c1.7,3.7,5.4,6.3,9.8,6.3C75.2,42,80,37.2,80,31.3V29L73.5,0z
	 M18.9,31.3c0,4.5-3.7,8.2-8.2,8.2c-4.5,0-8.2-3.7-8.2-8.2v-0.8h16.4V31.3z M19.2,27.9H2.8L8.5,2.5H21L19.2,27.9z M38.4,31.3
	c0,4.5-3.7,8.2-8.2,8.2c-4.5,0-8.2-3.7-8.2-8.2v-0.8h16.4V31.3z M38.5,27.9H21.9l1.8-25.4h14.8V27.9z M58,31.3
	c0,4.5-3.7,8.2-8.2,8.2c-4.5,0-8.2-3.7-8.2-8.2v-0.8H58C58,30.5,58,31.3,58,31.3z M41.2,27.9V2.5h15.1l2,25.4H41.2z M58.9,2.5h12.6
	l5.7,25.4H60.9L58.9,2.5z M77.5,31.3c0,4.5-3.7,8.2-8.2,8.2c-4.5,0-8.2-3.7-8.2-8.2v-0.8l0,0v0h16.4V31.3z"/>
</svg>
