<?xml version="1.0" encoding="utf-8"?>
<!-- Generator: Adobe Illustrator 24.1.1, SVG Export Plug-In . SVG Version: 6.00 Build 0)  -->
<svg version="1.1" id="Layer_1" xmlns="http://www.w3.org/2000/svg" xmlns:xlink="http://www.w3.org/1999/xlink" x="0px" y="0px"
	 viewBox="0 0 80 80" style="enable-background:new 0 0 80 80;" xml:space="preserve">
<style type="text/css">
	.st0{fill:#222222;}
</style>
<path class="st0" d="M40,57.5c-0.4,0-0.8-0.2-1-0.6L21.9,31.6c-4.8-8.3-3.4-18.7,3.3-25.4c4-4,9.2-6.1,14.8-6.1
	c5.6,0,10.9,2.2,14.9,6.1c6.7,6.7,8.1,17.1,3.3,25.3L41,57C40.8,57.3,40.4,57.5,40,57.5z M40,2.5c-4.9,0-9.6,1.9-13.1,5.4
	C21,13.8,19.8,23,24,30.2L40,54l16-23.8c4.1-7.2,2.9-16.3-3-22.3C49.6,4.4,44.9,2.5,40,2.5z"/>
<path class="st0" d="M40,32.4c-3,0-5.9-1.2-8-3.3c-2.1-2.1-3.3-5-3.3-8c0-3,1.2-5.9,3.3-8.1c2.2-2.1,5-3.3,8-3.3s5.9,1.2,8.1,3.3
	c2.1,2.1,3.3,5,3.3,8c0,3-1.2,5.9-3.3,8C45.9,31.2,43.1,32.4,40,32.4z M40,12.1c-2.4,0-4.6,0.9-6.3,2.6c-1.7,1.7-2.6,3.9-2.6,6.3
	c0,2.4,0.9,4.6,2.6,6.3c3.4,3.4,9.2,3.4,12.6,0c1.7-1.7,2.6-3.9,2.6-6.3c0-2.4-0.9-4.6-2.6-6.3C44.6,13,42.4,12.1,40,12.1z"/>
<path class="st0" d="M79,72.1c0,0-5.4-16.1-8.5-25.6c-1.1-3.3-3.7-4.9-8-6.8L58.6,38l-1.4,2.1l4.3,2c4.3,1.8,5.9,3.1,6.6,5.3
	c3.2,9.5,8.5,25.7,8.6,25.7c1.2,3.5,0.7,4.3,0.7,4.3c-0.1,0.2-1.1,0.3-3.9-1l-17-8.3c-0.4-0.2-0.8-0.2-1.1,0L40,76l-16.2-8
	c-0.3-0.2-0.8-0.2-1.1,0L6.5,76.3c-2.9,1.4-3.9,1.2-3.9,1.2c0,0-0.5-0.7,0.7-4.5c0,0,5.4-16.1,8.5-25.7c0.7-2.1,2.1-3.2,6.7-5.3
	l4.3-1.9L21.4,38l-3.9,1.8c-4.7,2.2-7,3.6-8,6.8C6.4,56,1,72.1,1,72.1c-1.1,3.5-1.3,5.6-0.4,6.8C0.9,79.4,1.6,80,2.9,80
	c1.1,0,2.6-0.5,4.7-1.5l15.6-8l16.2,8c0.4,0.2,0.8,0.2,1.1,0l15.4-8l16.5,8c1.9,0.9,3.4,1.3,4.5,1.3c1.4,0,2.1-0.6,2.4-1.1
	C80.3,77.5,80.2,75.5,79,72.1z"/>
</svg>
